# Blender v2.93.1 OBJ File: 'BinGus.blend'
# www.blender.org
mtllib BinGus.mtl
o Cube
v 1.000000 -2.438945 -1.000000
v 1.000000 2.438945 -1.000000
v 1.000000 -2.438945 1.000000
v 1.000000 2.438945 1.000000
v -1.000000 -2.438945 -1.000000
v -1.000000 2.438945 -1.000000
v -1.000000 -2.438945 1.000000
v -1.000000 2.438945 1.000000
vt 0.875000 0.500000
vt 0.625000 0.500000
vt 0.625000 0.750000
vt 0.375000 0.750000
vt 0.375000 1.000000
vt 0.625000 0.000000
vt 0.375000 0.000000
vt 0.375000 0.250000
vt 0.375000 0.500000
vt 0.125000 0.500000
vt 0.125000 0.750000
vt 0.625000 0.250000
vt 0.875000 0.750000
vt 0.625000 1.000000
vn 0.0000 -1.0000 0.0000
vn 0.0000 0.0000 1.0000
vn -1.0000 0.0000 0.0000
vn 0.0000 1.0000 0.0000
vn 1.0000 0.0000 0.0000
vn 0.0000 0.0000 -1.0000
usemtl Material
s off
f 5/1/1 1/2/1 3/3/1
f 3/3/2 4/4/2 8/5/2
f 7/6/3 8/7/3 6/8/3
f 2/9/4 6/10/4 8/11/4
f 1/2/5 2/9/5 4/4/5
f 5/12/6 6/8/6 2/9/6
f 5/1/1 3/3/1 7/13/1
f 3/3/2 8/5/2 7/14/2
f 7/6/3 6/8/3 5/12/3
f 2/9/4 8/11/4 4/4/4
f 1/2/5 4/4/5 3/3/5
f 5/12/6 2/9/6 1/2/6
o Cube.001
v -1.173203 1.502638 0.532462
v -1.173203 1.502638 -0.619207
v -1.058832 1.502638 0.532462
v -1.058832 1.502638 -0.619207
v -1.173203 1.806958 0.532462
v -1.173203 1.806958 -0.619207
v -1.058832 1.806958 0.532462
v -1.058832 1.806958 -0.619207
vt 0.625000 0.000000
vt 0.375000 0.250000
vt 0.375000 0.000000
vt 0.625000 0.250000
vt 0.375000 0.500000
vt 0.625000 0.500000
vt 0.375000 0.750000
vt 0.625000 0.750000
vt 0.375000 1.000000
vt 0.125000 0.750000
vt 0.125000 0.500000
vt 0.875000 0.500000
vt 0.625000 1.000000
vt 0.875000 0.750000
vn 0.0000 -1.0000 0.0000
vn 1.0000 0.0000 0.0000
vn 0.0000 1.0000 0.0000
vn -1.0000 0.0000 0.0000
vn 0.0000 0.0000 1.0000
vn 0.0000 0.0000 -1.0000
usemtl Material.001
s off
f 10/15/7 11/16/7 9/17/7
f 12/18/8 15/19/8 11/16/8
f 16/20/9 13/21/9 15/19/9
f 14/22/10 9/23/10 13/21/10
f 15/19/11 9/24/11 11/25/11
f 12/26/12 14/22/12 16/20/12
f 10/15/7 12/18/7 11/16/7
f 12/18/8 16/20/8 15/19/8
f 16/20/9 14/22/9 13/21/9
f 14/22/10 10/27/10 9/23/10
f 15/19/11 13/21/11 9/24/11
f 12/26/12 10/28/12 14/22/12
o Cube.003
v -0.923157 -0.961109 -1.041610
v -0.923157 1.038891 -1.041610
v -0.977314 1.039452 0.993786
v -0.977314 -0.960548 0.993786
v 1.076843 -0.961109 -1.041610
v 1.076843 1.038891 -1.041610
v -0.364694 -0.402647 -3.041610
v -0.923157 -0.961109 -2.483148
v -0.364694 0.480428 -3.041610
v -0.923157 1.038891 -2.483148
v 0.518381 -0.402647 -3.041610
v 1.076843 -0.961109 -2.483148
v 1.076843 1.038891 -2.483148
v 0.518381 0.480428 -3.041610
v 1.022686 -0.960548 0.993786
v 1.022686 1.039452 0.993786
v -0.375151 0.437289 2.993786
v -0.977314 1.039452 2.391623
v -0.375151 -0.358386 2.993786
v -0.977314 -0.960548 2.391623
v 0.420524 -0.358386 2.993786
v 1.022686 -0.960548 2.391623
v 0.420524 0.437289 2.993786
v 1.022686 1.039452 2.391623
vt 0.555192 0.319808
vt 0.444808 0.430192
vt 0.444808 0.319808
vt 0.875000 0.569808
vt 0.625000 0.750000
vt 0.625000 0.569808
vt 0.549730 0.825270
vt 0.450270 0.924730
vt 0.450270 0.825270
vt 0.375000 1.000000
vt 0.375000 0.750000
vt 0.625000 0.000000
vt 0.375000 0.180192
vt 0.375000 0.000000
vt 0.375000 0.569808
vt 0.625000 0.180192
vt 0.375000 0.250000
vt 0.375000 0.500000
vt 0.625000 0.500000
vt 0.625000 0.250000
vt 0.555192 0.430192
vt 0.125000 0.750000
vt 0.125000 0.569808
vt 0.500000 0.253906
vt 0.250000 0.503906
vt 0.250000 0.253906
vt 0.375000 0.500000
vt 0.125000 0.674730
vt 0.125000 0.500000
vt 0.625000 0.500000
vt 0.375000 0.674730
vt 0.625000 0.075270
vt 0.375000 0.250000
vt 0.375000 0.075270
vt 0.549730 0.924730
vt 0.375000 1.000000
vt 0.625000 0.674730
vt 0.375000 0.750000
vt 0.625000 1.000000
vt 0.625000 0.750000
vt 0.875000 0.500000
vt 0.875000 0.750000
vt 0.625000 1.000000
vt 0.500000 0.503906
vt 0.625000 0.250000
vt 0.875000 0.674730
vn 0.0000 0.0000 -1.0000
vn 0.0000 1.0000 0.0000
vn 0.0000 0.0000 1.0000
vn -1.0000 0.0000 0.0000
vn 1.0000 0.0000 0.0000
vn -0.7071 0.0000 -0.7071
vn 0.0000 -0.7071 -0.7071
vn 0.0000 0.7071 -0.7071
vn 0.7071 0.0000 -0.7071
vn 0.0000 -1.0000 0.0000
vn -0.7071 0.0000 0.7071
vn 0.7071 0.0000 0.7071
vn 0.0000 -0.7071 0.7071
vn 0.0000 0.7071 0.7071
usemtl Material.002
s off
f 25/29/13 27/30/13 23/31/13
f 26/32/14 22/33/14 29/34/14
f 39/35/15 35/36/15 37/37/15
f 22/33/15 17/38/15 21/39/15
f 18/40/16 24/41/16 17/42/16
f 29/34/17 21/39/17 28/43/17
f 23/31/18 26/44/18 25/29/18
f 24/45/19 27/30/19 28/46/19
f 29/47/20 25/29/20 26/48/20
f 28/43/21 30/49/21 29/34/21
f 28/43/22 17/50/22 24/51/22
f 19/52/13 31/53/13 20/54/13
f 31/55/22 36/56/22 20/57/22
f 32/58/17 38/59/17 31/55/17
f 34/60/16 20/61/16 36/62/16
f 33/63/23 36/64/23 35/36/23
f 37/37/24 40/65/24 39/35/24
f 38/66/25 35/36/25 36/64/25
f 34/67/26 39/35/26 40/68/26
f 19/69/14 40/65/14 32/58/14
f 25/29/13 30/49/13 27/30/13
f 26/32/14 18/70/14 22/33/14
f 39/35/15 33/63/15 35/36/15
f 22/33/15 18/71/15 17/38/15
f 18/40/16 26/44/16 24/41/16
f 29/34/17 22/33/17 21/39/17
f 23/31/18 24/41/18 26/44/18
f 24/45/19 23/31/19 27/30/19
f 29/47/20 30/49/20 25/29/20
f 28/43/21 27/30/21 30/49/21
f 28/43/22 21/39/22 17/50/22
f 19/52/13 32/72/13 31/53/13
f 31/55/22 38/59/22 36/56/22
f 32/58/17 40/65/17 38/59/17
f 34/60/16 19/73/16 20/61/16
f 33/63/23 34/67/23 36/64/23
f 37/37/24 38/59/24 40/65/24
f 38/66/25 37/37/25 35/36/25
f 34/67/26 33/63/26 39/35/26
f 19/69/14 34/74/14 40/65/14
