# Blender v2.93.1 OBJ File: 'WeirdThing.blend'
# www.blender.org
mtllib ReecesStand.mtl
o TopCube_Cube.001
v -0.972124 2.348444 1.000000
v -0.972124 4.348444 1.000000
v -0.972124 2.348444 -1.000000
v -0.972124 4.348444 -1.000000
v 1.027876 2.348444 1.000000
v 1.027876 4.348444 1.000000
v 1.027876 2.348444 -1.000000
v 1.027876 4.348444 -1.000000
vt 0.625000 0.000000
vt 0.375000 0.250000
vt 0.375000 0.000000
vt 0.625000 0.250000
vt 0.375000 0.500000
vt 0.625000 0.500000
vt 0.375000 0.750000
vt 0.625000 0.750000
vt 0.375000 1.000000
vt 0.125000 0.750000
vt 0.125000 0.500000
vt 0.875000 0.500000
vt 0.625000 1.000000
vt 0.875000 0.750000
vn -1.0000 0.0000 0.0000
vn 0.0000 0.0000 -1.0000
vn 1.0000 0.0000 0.0000
vn 0.0000 0.0000 1.0000
vn 0.0000 -1.0000 0.0000
vn 0.0000 1.0000 0.0000
usemtl None
s off
f 2/1/1 3/2/1 1/3/1
f 4/4/2 7/5/2 3/2/2
f 8/6/3 5/7/3 7/5/3
f 6/8/4 1/9/4 5/7/4
f 7/5/5 1/10/5 3/11/5
f 4/12/6 6/8/6 8/6/6
f 2/1/1 4/4/1 3/2/1
f 4/4/2 8/6/2 7/5/2
f 8/6/3 6/8/3 5/7/3
f 6/8/4 2/13/4 1/9/4
f 7/5/5 5/7/5 1/10/5
f 4/12/6 2/14/6 6/8/6
o Stand_Cube.002
v 1.000000 2.000000 -1.000000
v 1.000000 1.000000 -1.000000
v 1.000000 2.000000 1.000000
v 1.000000 1.000000 1.000000
v -1.000000 2.000000 -1.000000
v -1.000000 1.000000 -1.000000
v -1.000000 2.000000 1.000000
v -1.000000 1.000000 1.000000
v -2.152185 1.000000 2.152185
v 2.152185 1.000000 2.152185
v -2.152185 1.000000 -2.152185
v 2.152185 1.000000 -2.152185
v -2.152185 0.000000 2.152185
v 2.152185 0.000000 2.152185
v -2.152185 0.000000 -2.152185
v 2.152185 0.000000 -2.152185
vt 0.875000 0.500000
vt 0.625000 0.750000
vt 0.625000 0.500000
vt 0.375000 1.000000
vt 0.375000 0.750000
vt 0.625000 0.000000
vt 0.375000 0.250000
vt 0.375000 0.000000
vt 0.375000 0.500000
vt 0.125000 0.750000
vt 0.125000 0.500000
vt 0.625000 0.250000
vt 0.000000 1.000000
vt 1.000000 0.000000
vt 0.000000 0.000000
vt 1.000000 0.000000
vt 0.000000 1.000000
vt 0.000000 0.000000
vt 1.000000 1.000000
vt 1.000000 1.000000
vt 0.875000 0.750000
vt 0.625000 1.000000
vn 0.0000 1.0000 0.0000
vn 0.0000 0.0000 1.0000
vn -1.0000 0.0000 0.0000
vn 0.0000 -1.0000 0.0000
vn 1.0000 0.0000 0.0000
vn 0.0000 0.0000 -1.0000
usemtl (null)
s off
f 13/15/7 11/16/7 9/17/7
f 11/16/8 16/18/8 12/19/8
f 15/20/9 14/21/9 16/22/9
f 10/23/10 16/24/10 14/25/10
f 9/17/11 12/19/11 10/23/11
f 13/26/12 10/23/12 14/21/12
f 19/27/10 18/28/10 17/29/10
f 22/30/7 23/31/7 21/32/7
f 20/33/9 22/30/9 18/28/9
f 17/29/11 23/31/11 19/27/11
f 19/27/8 24/34/8 20/33/8
f 18/28/12 21/32/12 17/29/12
f 13/15/7 15/35/7 11/16/7
f 11/16/8 15/36/8 16/18/8
f 15/20/9 13/26/9 14/21/9
f 10/23/10 12/19/10 16/24/10
f 9/17/11 11/16/11 12/19/11
f 13/26/12 9/17/12 10/23/12
f 19/27/10 20/33/10 18/28/10
f 22/30/7 24/34/7 23/31/7
f 20/33/9 24/34/9 22/30/9
f 17/29/11 21/32/11 23/31/11
f 19/27/8 23/31/8 24/34/8
f 18/28/12 22/30/12 21/32/12
